# xmcd
# Track frame offsets:
# 150
# 18531
# 35498
# 52070
# 63217
# 81880
# 97545
# 112356
# 127230
# 144003
# 160527
# 178058
# 190094
# 201350
# 218590
# 236393
# 250272
# 264410
# 283681
# 297620
#
# Disc length: 4163 seconds
# Revision: 0
# Processed by: cddbd v1.5.1PL0 Copyright (c) Steve Scherf et al.
# Submitted via: VisiTrax 2.9.10.228 - For more info visit www.synapsa.com
#
DISCID=25104114
DTITLE=Anni Filt - The very best of
DYEAR=2005
DGENRE=
TTITLE0=Anni Filt - Singing down the moon
TTITLE1=Anni Filt - Back in your arms again
TTITLE2=Anni Filt - Kissing an angel
TTITLE3=Anni Filt - Don't be cruel
TTITLE4=Anni Filt - He's a wild one
TTITLE5=Anni Filt - Why not me
TTITLE6=Anni Filt - You won't see me cry
TTITLE7=Anni Filt - Listen to the radio
TTITLE8=Anni Filt - A lovers lullabye
TTITLE9=Anni Filt - Charlie McCoy - Baby ride easy
TTITLE10=Anni Filt - Until a new love comes around
TTITLE11=Anni Filt - Don't cry daddy
TTITLE12=Anni Filt - Long tall Sally's saloon
TTITLE13=Anni Filt - Blanket on the ground
TTITLE14=Anni Filt - Who's that girl
TTITLE15=Anni Filt - Glynn Martin - What a way to start a day
TTITLE16=Anni Filt - Leaving Alabama
TTITLE17=Anni Filt - Leaving on a jetplane
TTITLE18=Anni Filt - Heaven's just a sin away
TTITLE19=Anni Filt - Everlasting love
EXTD=
EXTT0=
EXTT1=
EXTT2=
EXTT3=
EXTT4=
EXTT5=
EXTT6=
EXTT7=
EXTT8=
EXTT9=
EXTT10=
EXTT11=
EXTT12=
EXTT13=
EXTT14=
EXTT15=
EXTT16=
EXTT17=
EXTT18=
EXTT19=
PLAYORDER=
